<?xml version="1.0" encoding="utf-8"?>
<!-- Generator: Adobe Illustrator 24.1.0, SVG Export Plug-In . SVG Version: 6.00 Build 0)  -->
<svg version="1.1" id="Layer_1" xmlns="http://www.w3.org/2000/svg" xmlns:xlink="http://www.w3.org/1999/xlink" x="0px" y="0px"
	 viewBox="0 0 76.5 52.1" style="enable-background:new 0 0 76.5 52.1;" xml:space="preserve">
<path style="fill:#2f4f4f;" d="M74.7,41.7h-5.2V5.2c0-2.9-2.3-5.2-5.2-5.2H12.2C9.3,0,7,2.3,7,5.2v36.5H1.7c-1,0-1.7,0.8-1.7,1.7
	v3.5c0,2.9,2.3,5.2,5.2,5.2h66.1c2.9,0,5.2-2.3,5.2-5.2v-3.5C76.5,42.5,75.7,41.7,74.7,41.7z M10.4,5.2c0-1,0.8-1.7,1.7-1.7h52.1
	c1,0,1.7,0.8,1.7,1.7v36.5H10.4V5.2z M73,46.9c0,1-0.8,1.7-1.7,1.7H5.2c-1,0-1.7-0.8-1.7-1.7v-1.7H73V46.9z"/>
<g id="Page-1">
	<g id="Icons-AV" transform="translate(-168.000000, -85.000000)">
		<g id="play-circle-outline" transform="translate(168.000000, 85.000000)">
			<path id="Shape" style="fill-rule:evenodd;clip-rule:evenodd;fill:#2f4f4f;" d="M35.4,28.6l8.6-6.5l-8.6-6.5V28.6L35.4,28.6z
				 M38.2,7.7c-7.9,0-14.4,6.5-14.4,14.4s6.5,14.4,14.4,14.4S52.6,30,52.6,22.1S46.2,7.7,38.2,7.7L38.2,7.7z M38.2,33.6
				c-6.3,0-11.5-5.2-11.5-11.5s5.2-11.5,11.5-11.5s11.5,5.2,11.5,11.5S44.6,33.6,38.2,33.6L38.2,33.6z"/>
		</g>
	</g>
</g>
</svg>
